<?xml version="1.0" standalone="no"?>
<!DOCTYPE svg PUBLIC "-//W3C//DTD SVG 20010904//EN"
 "http://www.w3.org/TR/2001/REC-SVG-20010904/DTD/svg10.dtd">
<svg version="1.0" xmlns="http://www.w3.org/2000/svg"
 width="300.000000pt" height="240.000000pt" viewBox="0 0 300.000000 240.000000"
 preserveAspectRatio="xMidYMid meet">
<metadata>
Created by potrace 1.10, written by Peter Selinger 2001-2011
</metadata>
<g transform="translate(0.000000,240.000000) scale(0.100000,-0.100000)"
fill="#ffffff" stroke="none">
<path d="M1309 2175 c-331 -67 -616 -306 -739 -622 -43 -110 -57 -176 -68
-308 l-7 -90 -63 -6 c-36 -3 -70 -13 -79 -21 -8 -9 -23 -62 -34 -119 -11 -57
-26 -139 -34 -182 -32 -167 -32 -167 188 -167 l166 0 57 -73 c66 -83 73 -90
177 -179 119 -101 275 -175 442 -209 82 -17 305 -17 385 0 203 42 374 135 520
280 41 42 91 100 109 129 34 51 35 52 85 53 28 0 90 2 138 2 123 3 121 1 158
218 16 95 30 187 30 203 0 67 -17 2 -51 -187 l-35 -202 -151 -3 -151 -3 -34
-52 c-105 -157 -277 -292 -468 -367 -199 -78 -478 -77 -685 2 -176 69 -367
216 -460 357 l-40 60 -188 1 c-175 0 -188 1 -183 18 3 9 19 98 36 197 17 99
33 188 36 198 5 14 18 17 83 17 l78 0 6 113 c22 461 359 841 812 918 104 17
320 7 419 -20 94 -26 243 -95 311 -145 123 -89 242 -228 310 -364 67 -134 93
-233 102 -394 l6 -108 121 0 c143 1 140 17 -4 22 l-95 3 -7 107 c-20 292 -149
539 -378 722 -135 108 -266 168 -448 205 -71 15 -291 12 -373 -4z"/>
<path d="M1365 2120 c-349 -56 -642 -303 -755 -638 -26 -80 -52 -250 -48 -321
3 -53 3 -54 -32 -67 -19 -7 -58 -13 -85 -13 l-50 -1 -29 -167 c-16 -93 -31
-174 -33 -181 -4 -9 35 -12 174 -12 l179 0 43 -64 c191 -289 563 -456 904
-405 92 13 195 43 274 79 140 64 301 203 390 337 l38 58 145 0 144 1 27 164
c16 90 31 170 33 177 4 10 -13 13 -76 13 -44 0 -97 5 -118 11 l-37 11 -6 127
c-6 140 -27 233 -78 346 -115 256 -348 452 -624 525 -92 24 -286 34 -380 20z
m415 -60 c101 -34 250 -108 250 -125 -1 -5 -11 -23 -24 -38 -23 -28 -23 -28
-54 -10 -25 15 -37 16 -70 7 -38 -10 -42 -9 -67 18 -33 35 -55 35 -93 3 -28
-23 -52 -32 -52 -20 0 3 9 19 21 34 24 32 19 49 -24 89 -32 30 -57 23 -93 -23
l-26 -34 28 -37 28 -36 -25 -19 c-34 -26 -39 -24 -39 17 0 42 -45 94 -80 94
-12 0 -35 14 -50 30 -33 36 -52 38 -80 8 -22 -24 -26 -43 -10 -53 16 -10 12
-35 -4 -29 -22 8 -72 -22 -102 -61 -15 -19 -37 -38 -49 -41 -12 -3 -31 -22
-42 -42 -12 -22 -26 -35 -34 -33 -8 2 -38 6 -66 9 -49 4 -55 2 -85 -30 -18
-18 -38 -42 -44 -53 -11 -19 -13 -19 -30 -3 -11 9 -36 18 -58 20 l-39 3 40 50
c125 157 226 230 405 295 113 41 179 50 338 45 119 -3 146 -8 230 -35z m-397
-87 c-17 -17 -19 -17 -35 0 -17 16 -17 18 0 35 16 16 18 16 35 0 16 -17 16
-19 0 -35z m285 2 c28 -12 28 -23 0 -27 -14 -2 -25 -12 -29 -28 l-6 -25 -11
28 c-7 17 -19 27 -32 27 -11 0 -20 5 -20 10 0 6 9 10 20 10 11 0 23 7 25 15
15 49 18 51 24 25 4 -14 17 -29 29 -35z m-176 -42 c25 -23 23 -68 -4 -87 -31
-22 -45 -20 -73 9 -30 29 -31 49 -5 75 24 24 57 26 82 3z m306 -35 c18 -18 14
-45 -10 -62 -39 -28 -84 20 -52 55 20 22 45 24 62 7z m262 -3 c0 -8 7 -15 15
-15 8 0 15 -4 15 -10 0 -5 -6 -10 -14 -10 -8 0 -16 -5 -18 -12 -3 -8 -12 -5
-28 10 -19 18 -21 22 -7 22 9 0 17 7 17 15 0 8 5 15 10 15 6 0 10 -7 10 -15z
m-700 -15 c11 -11 22 -31 26 -45 4 -17 13 -25 28 -25 12 0 32 -7 44 -16 20
-14 24 -14 44 0 12 9 37 16 55 16 22 0 33 5 33 15 0 8 11 22 24 30 30 20 73 5
81 -27 7 -26 73 -54 89 -37 6 5 20 9 32 9 15 0 24 8 28 24 9 35 61 54 95 35
29 -17 41 -70 20 -95 -10 -12 -9 -18 3 -31 22 -21 38 -8 32 25 -7 33 14 55 47
50 31 -4 47 -33 32 -57 -10 -15 -9 -22 6 -35 10 -9 25 -14 34 -10 20 7 57 -12
57 -31 0 -10 9 -12 34 -8 60 10 97 -50 57 -93 -18 -20 -19 -78 0 -90 5 -3 9
-17 9 -31 0 -15 10 -33 25 -45 29 -22 34 -78 10 -98 -18 -15 -19 -30 -2 -30 7
0 19 17 28 37 20 45 10 98 -21 120 -16 11 -20 22 -15 40 3 15 2 22 -4 19 -12
-8 -25 30 -15 46 4 7 10 28 14 47 l5 35 29 -59 c39 -80 42 -87 65 -187 12 -49
21 -121 21 -166 0 -68 3 -82 23 -103 34 -38 84 -52 210 -59 10 0 9 -34 -4 -86
l-11 -44 -192 0 c-105 0 -201 3 -213 6 -17 5 -23 14 -23 33 0 16 -10 37 -25
51 -21 20 -30 22 -82 16 -65 -7 -58 -7 -136 0 -37 4 -63 2 -72 -6 -8 -6 -20
-8 -27 -4 -7 4 -73 9 -147 11 -125 2 -137 1 -157 -18 -12 -12 -28 -34 -34 -50
-16 -37 -49 -41 -43 -5 4 18 -3 33 -21 51 -25 25 -32 26 -84 21 -31 -3 -64 -5
-72 -5 -8 0 -71 2 -139 4 -68 2 -134 0 -145 -5 -12 -4 -31 -3 -43 3 -29 13
-68 -12 -78 -50 -13 -53 -11 -53 -250 -53 -166 0 -225 3 -232 13 -6 7 -6 32 0
65 l9 52 38 0 c41 0 84 14 111 37 9 8 29 16 45 19 16 3 51 11 77 19 46 14 50
13 87 -10 42 -26 140 -45 140 -27 0 6 -23 14 -51 18 -37 5 -62 16 -86 37 l-33
30 -73 -27 c-80 -29 -97 -32 -79 -14 7 7 12 44 12 94 0 92 17 176 56 280 26
72 39 92 50 81 4 -3 -3 -22 -14 -42 -20 -33 -20 -35 -3 -35 11 0 22 10 26 23
5 16 8 18 12 7 3 -8 15 -22 26 -31 l20 -17 -21 -6 c-28 -9 -30 -46 -3 -46 12
0 21 9 25 25 7 27 38 48 64 43 11 -2 20 6 27 27 6 17 22 36 38 43 21 10 26 17
18 25 -6 6 -11 26 -11 45 0 76 108 124 161 71 20 -20 66 -18 53 2 -13 21 19
69 57 86 21 10 39 23 39 29 0 6 9 23 21 38 26 33 79 36 109 6z m781 -30 c5 0
9 -6 9 -14 0 -8 3 -16 8 -18 11 -4 77 -89 91 -115 11 -21 10 -22 -21 -12 -59
19 -118 54 -118 69 -1 8 -7 26 -14 40 -17 29 -3 65 21 56 8 -3 19 -6 24 -6z
m-1293 -190 c47 -44 16 -124 -48 -122 -38 1 -47 7 -65 43 -14 26 -14 32 0 58
23 46 76 55 113 21z m125 -667 c3 -5 -3 -46 -12 -93 l-17 -85 -48 -3 c-36 -2
-47 0 -44 10 3 7 15 15 29 17 31 4 36 13 44 85 8 69 11 76 30 76 8 0 16 -3 18
-7z m150 1 c14 -15 -8 -34 -39 -34 -29 0 -34 -3 -34 -25 0 -17 4 -23 15 -19
20 8 35 -4 28 -22 -3 -9 -12 -12 -25 -8 -13 4 -24 1 -29 -7 -17 -28 -9 -39 27
-39 24 0 34 -4 32 -12 -5 -15 -87 -23 -99 -11 -5 5 -5 35 1 69 19 108 16 102
63 107 23 2 45 4 48 5 3 1 8 -1 12 -4z m278 -4 c25 0 39 -5 39 -12 0 -7 -20
-39 -45 -70 -25 -32 -45 -60 -45 -63 0 -3 16 -5 36 -5 61 0 35 -25 -29 -28
-72 -4 -73 7 -12 86 l45 57 -35 3 c-20 2 -35 9 -35 16 0 18 12 27 28 21 7 -3
31 -5 53 -5z m273 -52 c-8 -29 -14 -62 -14 -74 0 -36 -11 -54 -31 -54 -16 0
-18 5 -13 25 5 21 3 25 -14 25 -14 0 -22 -8 -24 -22 -2 -15 -11 -24 -26 -26
-20 -3 -22 -1 -16 25 4 15 12 55 18 88 l11 60 55 5 c30 3 58 4 61 3 3 -1 0
-26 -7 -55z m88 57 c3 -3 -1 -31 -8 -63 -19 -78 -18 -92 5 -92 17 0 21 12 32
76 11 69 28 99 45 81 7 -7 -16 -145 -28 -169 -12 -25 -108 -26 -108 -1 0 19
19 142 25 161 4 12 27 17 37 7z m236 -8 c6 -18 0 -27 -17 -27 -15 0 -22 -11
-30 -50 -6 -28 -11 -62 -11 -75 0 -20 -5 -25 -24 -25 -23 0 -24 3 -16 33 4 17
11 51 14 75 6 37 4 42 -14 42 -18 0 -27 19 -16 31 7 7 111 3 114 -4z m-722
-42 c-9 -68 -21 -85 -61 -85 -31 0 -35 -3 -35 -25 0 -19 -5 -25 -23 -25 l-23
0 14 78 c8 42 16 83 18 90 2 8 23 12 60 12 l57 0 -7 -45z m884 23 c0 -20 -6
-53 -25 -135 -5 -20 -12 -23 -60 -23 -62 0 -60 -3 -44 86 17 98 14 94 75 94
49 0 54 -2 54 -22z m-1271 -67 c16 -10 6 -31 -14 -31 -19 0 -55 -39 -55 -59 0
-20 90 -27 123 -10 20 11 21 11 8 -4 -7 -10 -28 -17 -46 -17 -45 0 -65 -9 -58
-26 4 -11 -7 -14 -53 -15 -42 0 -53 -3 -39 -9 11 -5 80 -9 153 -9 l134 -1 44
-39 c59 -51 183 -115 265 -135 194 -48 427 6 581 135 l47 39 133 0 c73 0 140
5 148 10 10 7 -9 10 -62 10 -43 0 -78 2 -78 5 0 3 12 17 28 31 23 23 27 32 24
74 -3 42 -1 48 20 53 36 10 436 8 442 -2 3 -5 -3 -35 -14 -67 -12 -33 -20 -60
-20 -61 2 -20 -14 -23 -125 -23 -91 0 -134 -4 -154 -15 -16 -8 -31 -11 -35 -8
-3 4 -6 1 -6 -6 0 -16 -96 -135 -151 -187 -288 -271 -733 -324 -1070 -127
-108 62 -224 168 -296 270 -19 26 -44 53 -56 60 -14 8 -70 12 -157 13 -184 0
-176 -4 -172 78 2 37 9 70 15 74 17 11 479 9 496 -1z m628 1 c10 -6 9 -17 -4
-50 -9 -23 -13 -45 -10 -49 4 -3 43 -7 87 -7 54 0 80 -4 80 -12 0 -29 120 -33
156 -5 35 28 157 23 185 -7 25 -28 24 -32 -8 -32 -26 0 -113 -44 -113 -58 0
-4 -20 -16 -45 -27 -25 -11 -45 -23 -45 -27 0 -5 -6 -8 -13 -8 -7 0 -32 -9
-55 -20 -22 -11 -57 -20 -76 -20 -19 0 -38 -4 -41 -10 -13 -21 -214 -9 -285
17 -8 3 -23 8 -33 9 -29 6 -156 73 -177 94 -10 10 -33 26 -50 35 -33 17 -32
35 3 35 12 0 29 5 37 11 13 9 13 10 0 8 -39 -4 -130 2 -130 9 0 4 53 8 118 9
64 0 127 4 138 6 15 4 29 -3 45 -19 18 -20 32 -24 76 -24 29 0 53 5 53 10 0 6
-26 10 -59 10 -43 0 -60 4 -65 15 -4 13 -2 14 14 5 24 -13 150 -9 150 5 -1 29
-14 55 -32 61 -10 3 -17 11 -15 17 6 20 91 33 114 19z m373 -10 c0 -5 -9 -17
-20 -27 -20 -18 -20 -17 -20 8 0 20 5 27 20 27 11 0 20 -4 20 -8z m120 -1 c0
-13 -26 -32 -33 -24 -14 13 -6 33 13 33 11 0 20 -4 20 -9z m-190 -96 c-14 -16
-130 -22 -130 -6 0 5 19 6 43 4 23 -3 53 0 67 6 34 13 34 13 20 -4z m255 -5
c20 0 46 5 58 12 20 10 21 10 8 -5 -18 -23 -126 -24 -135 -2 -4 13 -2 13 14 5
10 -5 35 -10 55 -10z m-1090 -30 c18 -20 17 -20 -20 -20 -38 0 -38 0 -19 19
10 11 19 20 20 20 0 1 9 -8 19 -19z"/>
<path d="M1035 1919 c-19 -17 -35 -39 -35 -48 0 -21 60 -81 81 -81 17 0 79 60
79 76 0 14 -65 84 -79 84 -5 0 -26 -14 -46 -31z m55 -10 c0 -11 7 -22 15 -24
49 -16 50 -17 18 -27 -23 -6 -33 -15 -33 -28 0 -10 -4 -22 -10 -25 -5 -3 -10
3 -10 13 0 22 -16 38 -45 44 -21 5 -17 8 30 23 8 2 15 16 15 30 0 15 4 24 10
20 6 -3 10 -15 10 -26z"/>
<path d="M1378 1681 c-49 -12 -81 -29 -117 -59 -27 -23 -56 -42 -64 -42 -29 0
-47 -12 -47 -31 0 -13 -12 -21 -42 -29 -232 -61 -271 -81 -283 -144 -3 -17
-10 -40 -15 -51 -19 -43 -29 -119 -18 -139 20 -38 36 -46 87 -46 28 0 51 -4
51 -10 0 -5 5 -10 10 -10 25 0 7 29 -22 35 -27 6 -29 9 -14 17 10 6 61 7 128
2 95 -6 111 -9 115 -25 7 -24 66 -44 90 -30 15 8 10 11 -26 17 -35 6 -45 12
-53 35 -12 34 -17 36 -145 44 l-103 7 -17 -31 c-12 -20 -26 -31 -40 -31 -28 0
-39 18 -20 33 9 7 19 24 22 39 5 20 2 30 -14 39 -15 10 -17 16 -9 26 19 23 45
15 57 -17 11 -33 26 -42 18 -10 -3 11 -2 22 1 24 4 2 56 1 117 -3 l110 -6 5
-30 6 -30 13 38 c13 37 24 44 49 28 18 -11 109 5 125 21 6 8 21 24 32 37 l20
23 -89 -3 c-55 -3 -91 0 -93 6 -2 6 27 19 64 29 273 77 309 94 366 180 l36 54
-57 6 c-72 8 -242 -9 -284 -29 -28 -13 -29 -14 -7 -10 135 25 316 34 304 15
-3 -5 -16 -10 -27 -10 -23 0 -128 -67 -128 -82 0 -4 -18 -8 -40 -8 -22 0 -40
4 -40 9 0 6 20 24 45 42 25 18 45 34 45 36 0 11 -25 -3 -79 -42 -34 -25 -68
-45 -77 -45 -21 0 -9 16 39 52 l42 31 -45 -7 c-25 -4 -50 -13 -56 -21 -6 -8
-22 -19 -36 -24 -23 -9 -25 -7 -21 10 5 18 15 23 41 20 16 -2 16 16 0 21 -21
7 39 40 100 54 71 17 370 19 443 3 45 -10 64 -22 130 -85 58 -55 85 -74 106
-75 15 0 37 -4 48 -9 13 -6 -18 -9 -87 -9 -58 -1 -113 -4 -122 -7 -11 -4 -16
-1 -16 10 0 12 10 16 45 16 25 0 45 3 45 6 0 11 -62 85 -67 80 -2 -2 3 -18 12
-35 8 -17 14 -32 13 -32 -19 -9 -51 -3 -55 10 -3 9 -13 32 -21 51 -8 19 -16
38 -16 42 -1 3 -4 10 -8 14 -14 13 -8 -20 12 -74 14 -37 21 -82 23 -143 1 -49
5 -89 10 -89 4 0 7 11 7 24 0 21 5 25 37 28 20 2 38 8 40 13 2 7 -12 9 -37 7
-37 -4 -40 -2 -40 21 0 21 5 25 46 31 91 12 221 7 234 -9 9 -10 9 -15 1 -15
-17 0 -13 -19 9 -37 22 -19 28 -90 10 -124 -17 -30 -27 -23 -34 24 -7 42 -31
86 -42 75 -3 -4 -1 -15 4 -25 16 -29 19 -105 5 -110 -9 -3 -13 8 -13 39 0 25
-8 56 -20 76 -16 26 -26 32 -54 32 -54 0 -77 -31 -90 -122 -4 -27 -12 -48 -18
-48 -11 0 -6 55 8 110 7 24 6 24 -12 8 -14 -12 -59 -22 -158 -33 -76 -9 -139
-15 -140 -13 0 2 -9 18 -19 36 -17 30 -17 32 -1 32 49 0 250 23 257 29 4 4 5
14 2 22 -5 13 -22 13 -119 4 -62 -5 -120 -16 -128 -22 -8 -7 -25 -9 -39 -6
l-24 7 25 7 c18 5 9 7 -30 8 -57 1 -140 -28 -140 -49 0 -6 11 -5 30 5 48 25
94 19 135 -16 31 -28 35 -37 35 -80 0 -37 -4 -49 -15 -49 -10 0 -15 10 -15 29
0 15 -10 43 -23 62 -28 42 -79 51 -118 20 -26 -20 -49 -78 -49 -121 0 -13 -7
-32 -17 -42 -15 -17 -15 -18 1 -18 9 0 30 -16 47 -35 26 -29 37 -35 68 -34 33
2 34 2 6 6 -40 6 -63 28 -75 74 -20 74 23 169 76 169 50 0 96 -107 74 -170 -7
-19 -18 -42 -24 -51 -6 -8 1 -3 16 13 25 25 40 29 175 49 111 15 152 18 165
10 14 -9 18 -8 18 4 0 22 14 18 48 -15 40 -38 83 -40 117 -5 14 13 25 28 25
33 0 4 20 18 45 30 64 31 78 58 73 140 -3 56 -8 73 -33 105 -17 21 -40 40 -52
43 -18 5 -21 11 -16 35 4 21 1 30 -11 35 -20 8 -21 24 -1 24 8 0 15 5 15 10 0
6 -34 10 -83 10 -76 0 -86 2 -123 29 -53 40 -126 51 -318 50 -120 0 -178 -5
-228 -18z m719 -126 c2 -1 -3 -10 -10 -19 -13 -17 -15 -17 -46 -2 -40 21 -32
36 17 29 20 -3 38 -7 39 -8z m-873 -18 c-9 -24 -76 -54 -179 -82 -112 -31
-150 -47 -164 -72 -7 -14 -13 -15 -22 -6 -9 9 -6 17 13 35 17 18 60 34 151 58
70 18 142 44 160 56 37 27 48 29 41 11z m309 -27 c-18 -10 -61 -27 -95 -36
-35 -8 -106 -29 -158 -46 -85 -27 -109 -31 -227 -32 -73 0 -133 2 -133 6 0 3
24 11 53 16 63 13 166 46 225 73 35 16 66 19 180 20 86 0 130 4 117 9 -15 7
-9 9 25 9 l45 1 -32 -20z m-365 -157 c3 -21 0 -22 -50 -18 -49 4 -50 4 -11 -4
24 -4 46 -10 49 -14 15 -14 -5 -17 -56 -7 -29 5 -88 10 -131 10 -72 0 -79 2
-79 20 0 22 3 23 165 22 86 0 87 1 30 8 l-60 7 70 -1 c64 -1 70 -3 73 -23z
m157 -3 c-3 -5 -12 -10 -19 -10 -8 0 -16 -9 -19 -20 -6 -24 -52 -28 -60 -6 -4
10 -14 12 -29 8 -20 -5 -21 -4 -10 11 9 11 34 17 75 20 34 2 63 4 65 5 2 1 0
-2 -3 -8z m743 -2 c17 -17 15 -33 -3 -18 -13 11 -15 8 -15 -19 0 -33 8 -39 27
-20 9 9 13 2 18 -25 9 -44 -9 -91 -41 -113 -21 -13 -25 -13 -48 4 -45 32 -53
114 -17 181 13 24 59 30 79 10z m-165 -95 c-3 -21 -10 -41 -15 -44 -22 -14
-270 -41 -281 -30 -14 14 -2 17 123 31 118 13 140 18 140 30 0 4 -17 4 -37 0
-21 -5 -72 -10 -113 -12 -62 -2 -75 0 -78 13 -3 16 19 20 255 48 8 1 10 -11 6
-36z"/>
<path d="M1235 1454 c-44 -8 -100 -18 -125 -23 -44 -9 -44 -9 25 -10 43 -1 97
7 139 19 115 32 101 38 -39 14z"/>
<path d="M2001 1321 c-16 -29 -13 -41 9 -41 15 0 20 7 20 24 0 33 -16 42 -29
17z"/>
<path d="M2061 1261 c-12 -8 -12 -12 -2 -25 16 -19 31 -12 31 15 0 21 -7 23
-29 10z"/>
<path d="M1990 1236 c0 -30 15 -42 24 -20 10 27 7 44 -9 44 -9 0 -15 -9 -15
-24z"/>
<path d="M2027 1198 c-7 -27 -3 -32 18 -24 18 6 17 37 -1 43 -6 2 -14 -6 -17
-19z"/>
<path d="M1677 1598 l-25 -43 44 -3 c30 -2 44 -8 44 -18 0 -10 -12 -14 -39
-14 -44 0 -71 -8 -71 -21 0 -10 177 -11 202 -1 15 6 15 12 -5 72 l-22 65 -51
3 c-51 3 -52 3 -77 -40z m121 15 c7 -69 12 -87 24 -94 9 -6 2 -9 -19 -9 -18 0
-33 4 -33 9 0 5 -9 30 -21 56 -20 45 -21 46 -40 29 -10 -9 -19 -13 -19 -8 0
21 26 34 65 34 31 0 41 -4 43 -17z"/>
<path d="M2140 1611 c0 -5 8 -12 18 -16 16 -6 16 -7 0 -16 -25 -14 -22 -29 6
-29 28 0 40 24 26 51 -11 19 -50 27 -50 10z"/>
<path d="M1461 1572 c-35 -24 -48 -38 -37 -40 9 -2 35 11 59 29 61 47 63 49
47 49 -8 0 -39 -17 -69 -38z"/>
<path d="M680 1470 c0 -12 -4 -29 -10 -39 -9 -17 -7 -17 24 -2 27 13 32 20 26
36 -10 28 -40 32 -40 5z"/>
<path d="M1578 1459 c-48 -4 -95 -12 -105 -19 -14 -9 -3 -10 52 -6 39 3 130 9
203 12 72 4 132 11 132 15 0 11 -158 9 -282 -2z"/>
<path d="M717 1392 c-22 -24 -21 -46 0 -63 10 -9 14 -9 10 -2 -13 22 4 59 31
70 l27 11 -26 1 c-14 1 -33 -7 -42 -17z"/>
<path d="M2275 1349 c0 -35 1 -38 12 -23 7 10 13 23 13 30 0 6 -6 16 -13 22
-10 8 -12 2 -12 -29z"/>
<path d="M1338 1260 c-15 -27 -20 -29 -37 -18 -15 9 -24 8 -46 -6 -22 -14 -26
-23 -20 -44 9 -37 25 -52 25 -23 0 12 5 31 10 42 9 16 14 17 30 7 11 -7 25
-26 32 -43 l13 -30 6 45 c3 25 9 57 13 73 11 36 -5 34 -26 -3z"/>
<path d="M1454 1265 c-18 -28 -12 -45 17 -45 15 0 19 7 19 35 0 41 -13 45 -36
10z"/>
<path d="M1510 1260 c0 -20 5 -30 15 -30 21 0 30 27 15 45 -19 23 -30 18 -30
-15z"/>
<path d="M1520 1196 c0 -17 24 -38 33 -29 15 15 6 43 -13 43 -11 0 -20 -6 -20
-14z"/>
<path d="M1441 1183 c0 -10 4 -27 8 -38 7 -18 9 -17 24 11 17 34 14 44 -15 44
-11 0 -18 -7 -17 -17z"/>
<path d="M2174 1188 c-10 -6 -32 -23 -49 -38 -16 -15 -37 -30 -45 -33 -9 -3
-6 -6 9 -6 13 -1 36 10 53 24 16 14 40 25 54 25 13 0 57 -11 98 -25 41 -14 85
-25 98 -25 22 1 22 2 -6 16 -26 15 -106 45 -167 64 -15 4 -34 3 -45 -2z"/>
<path d="M1489 1136 c-7 -14 -9 -29 -5 -33 11 -11 41 12 41 32 0 29 -24 29
-36 1z"/>
<path d="M1755 1135 c-44 -8 -97 -14 -117 -14 -21 -1 -38 -5 -38 -11 0 -12 9
-12 128 0 138 15 162 20 162 30 0 13 -34 11 -135 -5z"/>
<path d="M1596 944 c-12 -32 -6 -54 14 -54 13 0 20 7 20 19 0 11 3 26 6 35 4
11 0 16 -14 16 -11 0 -23 -7 -26 -16z"/>
<path d="M1196 938 c-10 -38 -7 -48 14 -48 11 0 20 6 20 13 0 6 3 22 6 35 5
17 2 22 -14 22 -12 0 -22 -9 -26 -22z"/>
<path d="M2075 923 c-3 -21 -9 -48 -12 -60 -4 -18 -1 -23 16 -23 21 0 24 6 36
83 5 32 3 37 -13 37 -15 0 -21 -9 -27 -37z"/>
<path d="M1979 640 c-23 -19 -23 -19 -3 -20 11 0 29 -9 39 -20 10 -11 22 -17
27 -14 5 3 0 17 -12 29 -12 13 -19 28 -15 34 10 18 -11 12 -36 -9z"/>
<path d="M987 644 c-3 -4 1 -17 10 -30 18 -28 8 -32 -19 -7 -10 9 -18 12 -18
6 0 -5 9 -18 20 -28 16 -15 22 -16 35 -5 11 9 13 16 5 24 -5 5 -10 17 -10 25
0 11 4 10 20 -4 21 -19 28 -7 8 13 -13 13 -41 16 -51 6z"/>
<path d="M1921 591 c-35 -27 -22 -55 21 -46 l33 6 -25 -20 c-18 -15 -21 -21
-9 -21 9 0 23 8 32 18 14 16 15 21 3 37 -9 12 -15 15 -20 7 -4 -7 -14 -12 -23
-12 -14 0 -14 3 2 20 24 27 16 33 -14 11z"/>
<path d="M1074 584 c4 -10 -1 -25 -10 -36 -10 -10 -14 -21 -10 -26 4 -4 16 3
26 16 10 12 26 22 37 22 15 0 14 3 -7 20 -31 24 -44 25 -36 4z"/>
<path d="M1143 536 c3 -8 -4 -24 -15 -36 -17 -18 -18 -24 -7 -31 21 -13 29
-11 29 10 0 11 7 27 17 36 14 14 14 18 2 26 -21 13 -32 11 -26 -5z"/>
<path d="M1845 538 c-11 -6 -21 -12 -23 -13 -5 -4 33 -65 41 -65 15 0 47 21
47 31 0 6 -7 6 -19 -1 -31 -16 -36 -12 -15 11 19 21 19 22 -3 15 -27 -9 -30 2
-5 20 21 16 5 18 -23 2z"/>
<path d="M1194 484 c-16 -38 -12 -50 21 -56 12 -2 21 3 23 14 2 12 -2 15 -18
11 -21 -6 -22 -5 -6 25 10 20 12 33 6 37 -6 4 -17 -10 -26 -31z"/>
<path d="M1744 494 c-9 -4 -8 -16 4 -44 17 -45 21 -47 51 -22 19 15 20 20 9
44 -12 26 -35 34 -64 22z"/>
<path d="M1280 450 c-13 -48 -14 -45 23 -54 23 -5 27 -3 27 15 0 17 -3 19 -13
10 -20 -16 -27 -3 -16 27 6 16 6 29 0 35 -6 6 -14 -6 -21 -33z"/>
<path d="M1608 455 c-7 -8 6 -80 15 -77 4 1 16 2 27 2 11 0 20 5 20 11 0 6 -9
8 -20 4 -11 -4 -20 -2 -20 4 0 6 7 11 15 11 8 0 15 5 15 11 0 6 -7 9 -15 6 -8
-4 -17 -2 -20 3 -4 6 1 10 9 10 8 0 18 5 21 10 6 10 -37 15 -47 5z"/>
<path d="M1427 439 c7 -7 9 -25 6 -42 -5 -23 -3 -29 8 -25 8 2 15 17 17 31 2
15 8 27 13 27 5 0 9 5 9 10 0 6 -14 10 -32 10 -24 0 -29 -3 -21 -11z"/>
<path d="M1510 404 c0 -27 4 -43 10 -39 6 3 10 13 10 21 0 8 5 14 10 14 6 0
10 -7 10 -15 0 -8 6 -15 13 -15 9 0 11 12 9 40 -4 37 -22 58 -22 25 0 -8 -4
-15 -10 -15 -5 0 -10 7 -10 15 0 8 -4 15 -10 15 -5 0 -10 -21 -10 -46z"/>
<path d="M1540 770 c0 -5 14 -10 30 -10 17 0 30 5 30 10 0 6 -13 10 -30 10
-16 0 -30 -4 -30 -10z"/>
</g>
</svg>
